<?xml version="1.0" standalone="no"?>
<!DOCTYPE svg PUBLIC "-//W3C//DTD SVG 20010904//EN"
 "http://www.w3.org/TR/2001/REC-SVG-20010904/DTD/svg10.dtd">
<svg version="1.0" xmlns="http://www.w3.org/2000/svg"
 width="1024.000000pt" height="1024.000000pt" viewBox="0 0 1024.000000 1024.000000"
 preserveAspectRatio="xMidYMid meet">

<g transform="translate(0.000000,1024.000000) scale(0.100000,-0.100000)"
fill="#000000" stroke="none">
<path d="M3070 5122 l0 -1642 325 0 325 0 0 896 c0 550 4 894 9 892 5 -1 141
-124 301 -273 161 -148 317 -292 346 -318 l54 -49 63 59 c34 33 127 119 207
193 80 73 158 145 173 159 l28 27 -323 300 c-720 667 -1023 948 -1213 1123
-110 101 -221 205 -247 230 l-48 45 0 -1642z"/>
<path d="M5632 6623 c-81 -76 -318 -295 -526 -488 -208 -192 -406 -376 -440
-407 l-61 -56 35 -35 c19 -18 124 -116 233 -217 191 -177 200 -183 221 -169
13 8 174 154 359 324 l336 310 1 438 c0 240 -2 437 -5 437 -3 0 -72 -62 -153
-137z"/>
<path d="M5655 5428 c-71 -66 -219 -201 -327 -301 l-198 -182 0 -732 0 -733
1020 0 1020 0 0 330 0 330 -690 0 -690 0 -2 704 -3 704 -130 -120z"/>
</g>
</svg>
